<svg xmlns="http://www.w3.org/2000/svg" width="760" height="440" viewBox="0 0 760 440">
<rect width="100%" height="100%" fill="#ffffff"/>
<text x="380.0" y="28" text-anchor="middle" font-family="sans-serif" font-size="18" font-weight="700">Scroll Ground truth frame P50 (ms) correlation by burst gap</text>
<line x1="76" y1="52" x2="76" y2="370" stroke="#111827" stroke-width="1"/>
<line x1="76" y1="370" x2="592" y2="370" stroke="#111827" stroke-width="1"/>
<line x1="76" y1="211.00" x2="592" y2="211.00" stroke="#9ca3af" stroke-width="1.2" stroke-dasharray="4 4"/>
<line x1="76.00" y1="52" x2="76.00" y2="370" stroke="#e5e7eb" stroke-width="1"/>
<text x="76.00" y="392" text-anchor="middle" font-family="sans-serif" font-size="11" fill="#374151">0</text>
<line x1="179.20" y1="52" x2="179.20" y2="370" stroke="#e5e7eb" stroke-width="1"/>
<text x="179.20" y="392" text-anchor="middle" font-family="sans-serif" font-size="11" fill="#374151">10</text>
<line x1="282.40" y1="52" x2="282.40" y2="370" stroke="#e5e7eb" stroke-width="1"/>
<text x="282.40" y="392" text-anchor="middle" font-family="sans-serif" font-size="11" fill="#374151">20</text>
<line x1="385.60" y1="52" x2="385.60" y2="370" stroke="#e5e7eb" stroke-width="1"/>
<text x="385.60" y="392" text-anchor="middle" font-family="sans-serif" font-size="11" fill="#374151">31</text>
<line x1="488.80" y1="52" x2="488.80" y2="370" stroke="#e5e7eb" stroke-width="1"/>
<text x="488.80" y="392" text-anchor="middle" font-family="sans-serif" font-size="11" fill="#374151">41</text>
<line x1="592.00" y1="52" x2="592.00" y2="370" stroke="#e5e7eb" stroke-width="1"/>
<text x="592.00" y="392" text-anchor="middle" font-family="sans-serif" font-size="11" fill="#374151">51</text>
<line x1="76" y1="370.00" x2="592" y2="370.00" stroke="#e5e7eb" stroke-width="1"/>
<text x="66" y="374.00" text-anchor="end" font-family="sans-serif" font-size="11" fill="#374151">-1.0</text>
<line x1="76" y1="290.50" x2="592" y2="290.50" stroke="#e5e7eb" stroke-width="1"/>
<text x="66" y="294.50" text-anchor="end" font-family="sans-serif" font-size="11" fill="#374151">-0.5</text>
<line x1="76" y1="211.00" x2="592" y2="211.00" stroke="#e5e7eb" stroke-width="1"/>
<text x="66" y="215.00" text-anchor="end" font-family="sans-serif" font-size="11" fill="#374151">0.0</text>
<line x1="76" y1="131.50" x2="592" y2="131.50" stroke="#e5e7eb" stroke-width="1"/>
<text x="66" y="135.50" text-anchor="end" font-family="sans-serif" font-size="11" fill="#374151">0.5</text>
<line x1="76" y1="52.00" x2="592" y2="52.00" stroke="#e5e7eb" stroke-width="1"/>
<text x="66" y="56.00" text-anchor="end" font-family="sans-serif" font-size="11" fill="#374151">1.0</text>
<polyline points="85.92,124.14 96.05,128.86 126.43,193.67 177.05,181.65 278.31,219.27 582.08,225.70" fill="none" stroke="#2563eb" stroke-width="2.4"/>
<circle cx="85.92" cy="124.14" r="3.5" fill="#2563eb"/>
<circle cx="96.05" cy="128.86" r="3.5" fill="#2563eb"/>
<circle cx="126.43" cy="193.67" r="3.5" fill="#2563eb"/>
<circle cx="177.05" cy="181.65" r="3.5" fill="#2563eb"/>
<circle cx="278.31" cy="219.27" r="3.5" fill="#2563eb"/>
<circle cx="582.08" cy="225.70" r="3.5" fill="#2563eb"/>
<line x1="614" y1="70" x2="632" y2="70" stroke="#2563eb" stroke-width="2.4"/>
<text x="638" y="74" font-family="sans-serif" font-size="11" fill="#374151">avg_burst_latency_ms</text>
<polyline points="85.92,179.42 96.05,132.10 126.43,181.00 177.05,183.65 278.31,227.70 582.08,214.98" fill="none" stroke="#dc2626" stroke-width="2.4"/>
<circle cx="85.92" cy="179.42" r="3.5" fill="#dc2626"/>
<circle cx="96.05" cy="132.10" r="3.5" fill="#dc2626"/>
<circle cx="126.43" cy="181.00" r="3.5" fill="#dc2626"/>
<circle cx="177.05" cy="183.65" r="3.5" fill="#dc2626"/>
<circle cx="278.31" cy="227.70" r="3.5" fill="#dc2626"/>
<circle cx="582.08" cy="214.98" r="3.5" fill="#dc2626"/>
<line x1="614" y1="90" x2="632" y2="90" stroke="#dc2626" stroke-width="2.4"/>
<text x="638" y="94" font-family="sans-serif" font-size="11" fill="#374151">p95_burst_latency_ms</text>
<polyline points="85.92,196.74 96.05,197.83 126.43,196.79 177.05,200.56 278.31,204.86 582.08,204.79" fill="none" stroke="#16a34a" stroke-width="2.4"/>
<circle cx="85.92" cy="196.74" r="3.5" fill="#16a34a"/>
<circle cx="96.05" cy="197.83" r="3.5" fill="#16a34a"/>
<circle cx="126.43" cy="196.79" r="3.5" fill="#16a34a"/>
<circle cx="177.05" cy="200.56" r="3.5" fill="#16a34a"/>
<circle cx="278.31" cy="204.86" r="3.5" fill="#16a34a"/>
<circle cx="582.08" cy="204.79" r="3.5" fill="#16a34a"/>
<line x1="614" y1="110" x2="632" y2="110" stroke="#16a34a" stroke-width="2.4"/>
<text x="638" y="114" font-family="sans-serif" font-size="11" fill="#374151">max_burst_latency_ms</text>
<polyline points="85.92,127.20 96.05,125.37 126.43,189.84 177.05,173.53 278.31,179.36 582.08,164.47" fill="none" stroke="#9333ea" stroke-width="2.4"/>
<circle cx="85.92" cy="127.20" r="3.5" fill="#9333ea"/>
<circle cx="96.05" cy="125.37" r="3.5" fill="#9333ea"/>
<circle cx="126.43" cy="189.84" r="3.5" fill="#9333ea"/>
<circle cx="177.05" cy="173.53" r="3.5" fill="#9333ea"/>
<circle cx="278.31" cy="179.36" r="3.5" fill="#9333ea"/>
<circle cx="582.08" cy="164.47" r="3.5" fill="#9333ea"/>
<line x1="614" y1="130" x2="632" y2="130" stroke="#9333ea" stroke-width="2.4"/>
<text x="638" y="134" font-family="sans-serif" font-size="11" fill="#374151">avg_syscalls_per_burst</text>
<polyline points="85.92,241.43 96.05,293.61 126.43,278.45 177.05,258.60 278.31,193.54 582.08,208.90" fill="none" stroke="#ea580c" stroke-width="2.4"/>
<circle cx="85.92" cy="241.43" r="3.5" fill="#ea580c"/>
<circle cx="96.05" cy="293.61" r="3.5" fill="#ea580c"/>
<circle cx="126.43" cy="278.45" r="3.5" fill="#ea580c"/>
<circle cx="177.05" cy="258.60" r="3.5" fill="#ea580c"/>
<circle cx="278.31" cy="193.54" r="3.5" fill="#ea580c"/>
<circle cx="582.08" cy="208.90" r="3.5" fill="#ea580c"/>
<line x1="614" y1="150" x2="632" y2="150" stroke="#ea580c" stroke-width="2.4"/>
<text x="638" y="154" font-family="sans-serif" font-size="11" fill="#374151">throughput_bursts_per_s</text>
<polyline points="85.92,201.08 96.05,201.08 126.43,201.08 177.05,201.08 278.31,201.08 582.08,201.08" fill="none" stroke="#0891b2" stroke-width="2.4"/>
<circle cx="85.92" cy="201.08" r="3.5" fill="#0891b2"/>
<circle cx="96.05" cy="201.08" r="3.5" fill="#0891b2"/>
<circle cx="126.43" cy="201.08" r="3.5" fill="#0891b2"/>
<circle cx="177.05" cy="201.08" r="3.5" fill="#0891b2"/>
<circle cx="278.31" cy="201.08" r="3.5" fill="#0891b2"/>
<circle cx="582.08" cy="201.08" r="3.5" fill="#0891b2"/>
<line x1="614" y1="170" x2="632" y2="170" stroke="#0891b2" stroke-width="2.4"/>
<text x="638" y="174" font-family="sans-serif" font-size="11" fill="#374151">trace_event_count</text>
<polyline points="85.92,204.45 96.05,212.75 126.43,213.91 177.05,202.64 278.31,196.29 582.08,196.05" fill="none" stroke="#2563eb" stroke-width="2.4"/>
<circle cx="85.92" cy="204.45" r="3.5" fill="#2563eb"/>
<circle cx="96.05" cy="212.75" r="3.5" fill="#2563eb"/>
<circle cx="126.43" cy="213.91" r="3.5" fill="#2563eb"/>
<circle cx="177.05" cy="202.64" r="3.5" fill="#2563eb"/>
<circle cx="278.31" cy="196.29" r="3.5" fill="#2563eb"/>
<circle cx="582.08" cy="196.05" r="3.5" fill="#2563eb"/>
<line x1="614" y1="190" x2="632" y2="190" stroke="#2563eb" stroke-width="2.4"/>
<text x="638" y="194" font-family="sans-serif" font-size="11" fill="#374151">burst_count</text>
<text x="334.0" y="416" text-anchor="middle" font-family="sans-serif" font-size="13" fill="#111827">Burst gap (ms)</text>
<text transform="translate(22 211.0) rotate(-90)" text-anchor="middle" font-family="sans-serif" font-size="13" fill="#111827">Pearson r</text>
</svg>