<svg xmlns="http://www.w3.org/2000/svg" width="760" height="440" viewBox="0 0 760 440">
<rect width="100%" height="100%" fill="#ffffff"/>
<text x="380.0" y="28" text-anchor="middle" font-family="sans-serif" font-size="18" font-weight="700">Scroll Ground truth frame P95 (ms) correlation by burst gap</text>
<line x1="76" y1="52" x2="76" y2="370" stroke="#111827" stroke-width="1"/>
<line x1="76" y1="370" x2="592" y2="370" stroke="#111827" stroke-width="1"/>
<line x1="76" y1="211.00" x2="592" y2="211.00" stroke="#9ca3af" stroke-width="1.2" stroke-dasharray="4 4"/>
<line x1="76.00" y1="52" x2="76.00" y2="370" stroke="#e5e7eb" stroke-width="1"/>
<text x="76.00" y="392" text-anchor="middle" font-family="sans-serif" font-size="11" fill="#374151">0</text>
<line x1="179.20" y1="52" x2="179.20" y2="370" stroke="#e5e7eb" stroke-width="1"/>
<text x="179.20" y="392" text-anchor="middle" font-family="sans-serif" font-size="11" fill="#374151">10</text>
<line x1="282.40" y1="52" x2="282.40" y2="370" stroke="#e5e7eb" stroke-width="1"/>
<text x="282.40" y="392" text-anchor="middle" font-family="sans-serif" font-size="11" fill="#374151">20</text>
<line x1="385.60" y1="52" x2="385.60" y2="370" stroke="#e5e7eb" stroke-width="1"/>
<text x="385.60" y="392" text-anchor="middle" font-family="sans-serif" font-size="11" fill="#374151">31</text>
<line x1="488.80" y1="52" x2="488.80" y2="370" stroke="#e5e7eb" stroke-width="1"/>
<text x="488.80" y="392" text-anchor="middle" font-family="sans-serif" font-size="11" fill="#374151">41</text>
<line x1="592.00" y1="52" x2="592.00" y2="370" stroke="#e5e7eb" stroke-width="1"/>
<text x="592.00" y="392" text-anchor="middle" font-family="sans-serif" font-size="11" fill="#374151">51</text>
<line x1="76" y1="370.00" x2="592" y2="370.00" stroke="#e5e7eb" stroke-width="1"/>
<text x="66" y="374.00" text-anchor="end" font-family="sans-serif" font-size="11" fill="#374151">-1.0</text>
<line x1="76" y1="290.50" x2="592" y2="290.50" stroke="#e5e7eb" stroke-width="1"/>
<text x="66" y="294.50" text-anchor="end" font-family="sans-serif" font-size="11" fill="#374151">-0.5</text>
<line x1="76" y1="211.00" x2="592" y2="211.00" stroke="#e5e7eb" stroke-width="1"/>
<text x="66" y="215.00" text-anchor="end" font-family="sans-serif" font-size="11" fill="#374151">0.0</text>
<line x1="76" y1="131.50" x2="592" y2="131.50" stroke="#e5e7eb" stroke-width="1"/>
<text x="66" y="135.50" text-anchor="end" font-family="sans-serif" font-size="11" fill="#374151">0.5</text>
<line x1="76" y1="52.00" x2="592" y2="52.00" stroke="#e5e7eb" stroke-width="1"/>
<text x="66" y="56.00" text-anchor="end" font-family="sans-serif" font-size="11" fill="#374151">1.0</text>
<polyline points="85.92,136.85 96.05,179.69 126.43,162.70 177.05,187.50 278.31,301.98 582.08,168.35" fill="none" stroke="#2563eb" stroke-width="2.4"/>
<circle cx="85.92" cy="136.85" r="3.5" fill="#2563eb"/>
<circle cx="96.05" cy="179.69" r="3.5" fill="#2563eb"/>
<circle cx="126.43" cy="162.70" r="3.5" fill="#2563eb"/>
<circle cx="177.05" cy="187.50" r="3.5" fill="#2563eb"/>
<circle cx="278.31" cy="301.98" r="3.5" fill="#2563eb"/>
<circle cx="582.08" cy="168.35" r="3.5" fill="#2563eb"/>
<line x1="614" y1="70" x2="632" y2="70" stroke="#2563eb" stroke-width="2.4"/>
<text x="638" y="74" font-family="sans-serif" font-size="11" fill="#374151">avg_burst_latency_ms</text>
<polyline points="85.92,112.03 96.05,157.74 126.43,183.06 177.05,210.99 278.31,288.29 582.08,129.17" fill="none" stroke="#dc2626" stroke-width="2.4"/>
<circle cx="85.92" cy="112.03" r="3.5" fill="#dc2626"/>
<circle cx="96.05" cy="157.74" r="3.5" fill="#dc2626"/>
<circle cx="126.43" cy="183.06" r="3.5" fill="#dc2626"/>
<circle cx="177.05" cy="210.99" r="3.5" fill="#dc2626"/>
<circle cx="278.31" cy="288.29" r="3.5" fill="#dc2626"/>
<circle cx="582.08" cy="129.17" r="3.5" fill="#dc2626"/>
<line x1="614" y1="90" x2="632" y2="90" stroke="#dc2626" stroke-width="2.4"/>
<text x="638" y="94" font-family="sans-serif" font-size="11" fill="#374151">p95_burst_latency_ms</text>
<polyline points="85.92,116.25 96.05,119.76 126.43,113.20 177.05,115.17 278.31,121.28 582.08,121.41" fill="none" stroke="#16a34a" stroke-width="2.4"/>
<circle cx="85.92" cy="116.25" r="3.5" fill="#16a34a"/>
<circle cx="96.05" cy="119.76" r="3.5" fill="#16a34a"/>
<circle cx="126.43" cy="113.20" r="3.5" fill="#16a34a"/>
<circle cx="177.05" cy="115.17" r="3.5" fill="#16a34a"/>
<circle cx="278.31" cy="121.28" r="3.5" fill="#16a34a"/>
<circle cx="582.08" cy="121.41" r="3.5" fill="#16a34a"/>
<line x1="614" y1="110" x2="632" y2="110" stroke="#16a34a" stroke-width="2.4"/>
<text x="638" y="114" font-family="sans-serif" font-size="11" fill="#374151">max_burst_latency_ms</text>
<polyline points="85.92,141.84 96.05,177.56 126.43,164.08 177.05,183.16 278.31,252.47 582.08,136.80" fill="none" stroke="#9333ea" stroke-width="2.4"/>
<circle cx="85.92" cy="141.84" r="3.5" fill="#9333ea"/>
<circle cx="96.05" cy="177.56" r="3.5" fill="#9333ea"/>
<circle cx="126.43" cy="164.08" r="3.5" fill="#9333ea"/>
<circle cx="177.05" cy="183.16" r="3.5" fill="#9333ea"/>
<circle cx="278.31" cy="252.47" r="3.5" fill="#9333ea"/>
<circle cx="582.08" cy="136.80" r="3.5" fill="#9333ea"/>
<line x1="614" y1="130" x2="632" y2="130" stroke="#9333ea" stroke-width="2.4"/>
<text x="638" y="134" font-family="sans-serif" font-size="11" fill="#374151">avg_syscalls_per_burst</text>
<polyline points="85.92,266.47 96.05,303.22 126.43,307.23 177.05,263.02 278.31,122.57 582.08,273.98" fill="none" stroke="#ea580c" stroke-width="2.4"/>
<circle cx="85.92" cy="266.47" r="3.5" fill="#ea580c"/>
<circle cx="96.05" cy="303.22" r="3.5" fill="#ea580c"/>
<circle cx="126.43" cy="307.23" r="3.5" fill="#ea580c"/>
<circle cx="177.05" cy="263.02" r="3.5" fill="#ea580c"/>
<circle cx="278.31" cy="122.57" r="3.5" fill="#ea580c"/>
<circle cx="582.08" cy="273.98" r="3.5" fill="#ea580c"/>
<line x1="614" y1="150" x2="632" y2="150" stroke="#ea580c" stroke-width="2.4"/>
<text x="638" y="154" font-family="sans-serif" font-size="11" fill="#374151">throughput_bursts_per_s</text>
<polyline points="85.92,119.24 96.05,119.24 126.43,119.24 177.05,119.24 278.31,119.24 582.08,119.24" fill="none" stroke="#0891b2" stroke-width="2.4"/>
<circle cx="85.92" cy="119.24" r="3.5" fill="#0891b2"/>
<circle cx="96.05" cy="119.24" r="3.5" fill="#0891b2"/>
<circle cx="126.43" cy="119.24" r="3.5" fill="#0891b2"/>
<circle cx="177.05" cy="119.24" r="3.5" fill="#0891b2"/>
<circle cx="278.31" cy="119.24" r="3.5" fill="#0891b2"/>
<circle cx="582.08" cy="119.24" r="3.5" fill="#0891b2"/>
<line x1="614" y1="170" x2="632" y2="170" stroke="#0891b2" stroke-width="2.4"/>
<text x="638" y="174" font-family="sans-serif" font-size="11" fill="#374151">trace_event_count</text>
<polyline points="85.92,120.32 96.05,126.83 126.43,135.57 177.05,127.43 278.31,121.16 582.08,122.63" fill="none" stroke="#2563eb" stroke-width="2.4"/>
<circle cx="85.92" cy="120.32" r="3.5" fill="#2563eb"/>
<circle cx="96.05" cy="126.83" r="3.5" fill="#2563eb"/>
<circle cx="126.43" cy="135.57" r="3.5" fill="#2563eb"/>
<circle cx="177.05" cy="127.43" r="3.5" fill="#2563eb"/>
<circle cx="278.31" cy="121.16" r="3.5" fill="#2563eb"/>
<circle cx="582.08" cy="122.63" r="3.5" fill="#2563eb"/>
<line x1="614" y1="190" x2="632" y2="190" stroke="#2563eb" stroke-width="2.4"/>
<text x="638" y="194" font-family="sans-serif" font-size="11" fill="#374151">burst_count</text>
<text x="334.0" y="416" text-anchor="middle" font-family="sans-serif" font-size="13" fill="#111827">Burst gap (ms)</text>
<text transform="translate(22 211.0) rotate(-90)" text-anchor="middle" font-family="sans-serif" font-size="13" fill="#111827">Pearson r</text>
</svg>